<svg width="16" height="20" viewBox="0 0 16 20" fill="none" xmlns="http://www.w3.org/2000/svg">
<path fill-rule="evenodd" clip-rule="evenodd" d="M5.56751 0.207155C6.85397 -0.0690515 8.19793 -0.0690517 9.48439 0.207154C11.7666 0.697149 13.2972 1.6673 14.1728 3.01966C15.0422 4.36244 15.1824 5.95399 14.9552 7.52103C14.5054 10.6236 12.566 13.9656 11.1498 16.0898L10.9271 16.4237H4.12422L3.90157 16.0897C2.4855 13.9655 0.546285 10.6236 0.0965326 7.52101C-0.130626 5.95396 0.00963366 4.36242 0.87908 3.01966C1.75474 1.6673 3.2853 0.697151 5.56751 0.207155ZM9.16951 1.67373C8.09061 1.44209 6.96129 1.44209 5.88239 1.67373C3.85973 2.108 2.73533 2.91269 2.13818 3.83493C1.53481 4.76676 1.38441 5.94957 1.58102 7.30582C1.95826 9.90822 3.56615 12.8312 4.92954 14.9237H10.1219C11.4854 12.8312 13.0934 9.90821 13.4707 7.30579C13.6674 5.94954 13.517 4.76674 12.9137 3.83492C12.3166 2.91269 11.1922 2.108 9.16951 1.67373ZM10.5257 19.4237H4.52574V17.9237H10.5257V19.4237Z" fill="#2E2B26"/>
</svg>
