<svg width="24" height="21" viewBox="0 0 24 21" fill="none" xmlns="http://www.w3.org/2000/svg">
<path fill-rule="evenodd" clip-rule="evenodd" d="M11.7975 3.40817C11.8616 3.32675 11.9302 3.24162 12.0031 3.15363C12.5301 2.51782 13.3031 1.70837 14.2614 1.06983C15.2194 0.43158 16.4108 -0.0671768 17.7509 0.00751905C19.1083 0.0831789 20.497 0.740174 21.8456 2.18325L21.859 2.1976L21.8716 2.21263C23.6701 4.35134 23.9189 6.64539 23.2665 8.81942C22.6292 10.9428 21.1435 12.9303 19.5171 14.6082C17.8809 16.2963 16.0456 17.7284 14.6276 18.7347C13.9168 19.2391 13.3068 19.6394 12.8732 19.9143C12.6564 20.0519 12.4834 20.1581 12.3639 20.2305C12.3041 20.2668 12.2576 20.2945 12.2257 20.3135L12.1887 20.3353L12.1787 20.3411L12.1758 20.3428L12.1749 20.3433C12.1746 20.3435 12.1744 20.3436 11.7975 19.6952C11.4206 20.3436 11.4203 20.3435 11.42 20.3433L11.4191 20.3428L11.4163 20.3411L11.4062 20.3353L11.3693 20.3135C11.3373 20.2945 11.2909 20.2668 11.2311 20.2305C11.1115 20.1581 10.9386 20.0518 10.7217 19.9143C10.2882 19.6394 9.67816 19.2391 8.96736 18.7347C7.54926 17.7283 5.71401 16.2962 4.07774 14.6081C2.45135 12.9302 0.965604 10.9427 0.32832 8.81932C-0.32416 6.64529 -0.0753677 4.35123 1.72313 2.21251L1.73577 2.19748L1.74918 2.18314C3.09775 0.740051 4.48643 0.0830654 5.84385 0.00741903C7.18397 -0.0672633 8.37544 0.431508 9.3334 1.06977C10.2918 1.70832 11.0648 2.51778 11.5918 3.1536C11.6647 3.24161 11.7334 3.32674 11.7975 3.40817ZM11.7975 19.6952L11.42 20.3433L11.7975 20.5627L12.1749 20.3433L11.7975 19.6952ZM11.7975 18.8184C11.8772 18.769 11.9683 18.712 12.0699 18.6476C12.4851 18.3843 13.0731 17.9985 13.7595 17.5114C15.1356 16.5349 16.8909 15.1624 18.44 13.5642C19.999 11.9558 21.2935 10.1751 21.8298 8.38824C22.3493 6.65712 22.1675 4.9041 20.7361 3.19303C19.5964 1.97875 18.5554 1.55469 17.6675 1.50519C16.7587 1.45454 15.8869 1.78931 15.0932 2.31813C14.2999 2.84666 13.6329 3.53783 13.158 4.11087C12.9225 4.39491 12.739 4.64407 12.6155 4.82051C12.5539 4.90859 12.5074 4.97818 12.4772 5.02446C12.462 5.0476 12.451 5.06488 12.4441 5.0757L12.437 5.08701L12.4363 5.08816L11.7975 6.1267L11.1591 5.08889L11.1579 5.08702L11.1508 5.07571C11.144 5.06488 11.1329 5.0476 11.1178 5.02447C11.0875 4.97818 11.0411 4.9086 10.9794 4.82051C10.8559 4.64407 10.6724 4.3949 10.437 4.11086C9.96195 3.53781 9.29496 2.84662 8.50168 2.31807C7.70796 1.78923 6.83606 1.45445 5.92731 1.5051C5.03937 1.55458 3.99839 1.97864 2.85859 3.19292C1.42723 4.90398 1.24546 6.657 1.76501 8.38814C2.30128 10.175 3.59579 11.9557 5.15482 13.5641C6.70398 15.1624 8.45932 16.5348 9.83547 17.5114C10.5218 17.9985 11.1098 18.3843 11.525 18.6476C11.6266 18.712 11.7178 18.769 11.7975 18.8184Z" fill="#2E2B26"/>
</svg>
