<svg width="48" height="58" viewBox="0 0 48 58" fill="none" xmlns="http://www.w3.org/2000/svg">
<mask id="path-1-outside-1_1112_338" maskUnits="userSpaceOnUse" x="-0.407471" y="0.0385132" width="48" height="58" fill="black">
<rect fill="white" x="-0.407471" y="0.0385132" width="48" height="58"/>
<path d="M15.8221 13.775C17.2352 13.775 18.34 14.1959 19.1367 15.0376C19.9484 15.8644 20.3543 17.0595 20.3543 18.6228V25.5H19.9033V18.6228C19.9033 17.1947 19.5501 16.1049 18.8436 15.3533C18.1371 14.5867 17.1375 14.2034 15.8447 14.2034C14.3716 14.2034 13.8508 14.6618 12.994 15.5788C12.1371 16.4807 11.7087 17.6758 11.7087 19.1639V25.5H11.2578V18.6228C11.2578 17.1947 10.9045 16.1049 10.198 15.3533C9.4915 14.5867 8.49187 14.2034 7.19912 14.2034C5.72598 14.2034 4.56099 14.6618 3.70416 15.5788C2.84734 16.4807 3.06315 17.6758 3.06315 19.1639V25.5H2.61219V13.8426H3.06315V16.9317C3.40889 15.9396 3.35091 15.1654 4.17767 14.6092C5.00444 14.0531 6.00407 13.775 7.17657 13.775C8.3641 13.775 9.34118 14.0756 10.1078 14.6769C10.8745 15.2631 11.3705 16.12 11.596 17.2474C11.8966 16.1801 12.4679 15.3383 13.3096 14.722C14.1665 14.0906 14.5745 13.775 15.8221 13.775Z"/>
<path d="M28.3444 25.5676C27.2772 25.5676 26.3076 25.3196 25.4357 24.8235C24.5789 24.3124 23.9025 23.6059 23.4064 22.704C22.9254 21.8021 22.6849 20.7874 22.6849 19.66C22.6849 18.5326 22.9254 17.5255 23.4064 16.6386C23.9025 15.7366 24.5789 15.0376 25.4357 14.5416C26.3076 14.0305 27.2772 13.775 28.3444 13.775C29.4117 13.775 30.3738 14.0305 31.2306 14.5416C32.1024 15.0376 32.7789 15.7366 33.2599 16.6386C33.756 17.5255 34.004 18.5326 34.004 19.66C34.004 20.7874 33.756 21.8021 33.2599 22.704C32.7789 23.6059 32.1024 24.3124 31.2306 24.8235C30.3738 25.3196 29.4117 25.5676 28.3444 25.5676ZM28.3444 25.1392C29.3215 25.1392 30.2084 24.9062 31.0051 24.4402C31.8018 23.9742 32.4256 23.3278 32.8766 22.5011C33.3276 21.6593 33.553 20.7122 33.553 19.66C33.553 18.6078 33.3276 17.6683 32.8766 16.8415C32.4256 15.9997 31.8018 15.3533 31.0051 14.9024C30.2084 14.4364 29.3215 14.2034 28.3444 14.2034C27.3673 14.2034 26.4805 14.4364 25.6838 14.9024C24.8871 15.3533 24.2632 15.9997 23.8123 16.8415C23.3613 17.6683 23.1358 18.6078 23.1358 19.66C23.1358 20.7122 23.3613 21.6593 23.8123 22.5011C24.2632 23.3278 24.8871 23.9742 25.6838 24.4402C26.4805 24.9062 27.3673 25.1392 28.3444 25.1392Z"/>
<path d="M47.0576 1.03851V25.5H46.6066V21.9374C46.2158 23.0497 45.5544 23.9366 44.6224 24.598C43.6904 25.2444 42.6156 25.5676 41.398 25.5676C40.3458 25.5676 39.3837 25.3196 38.5119 24.8235C37.6551 24.3124 36.9786 23.6059 36.4825 22.704C35.9865 21.8021 35.7385 20.7874 35.7385 19.66C35.7385 18.5326 35.9865 17.5255 36.4825 16.6386C36.9786 15.7366 37.6551 15.0376 38.5119 14.5416C39.3837 14.0305 40.3458 13.775 41.398 13.775C42.6006 13.775 43.6679 14.1057 44.5999 14.7671C45.5469 15.4135 46.2158 16.2853 46.6066 17.3827V1.03851H47.0576ZM41.398 25.1392C42.3751 25.1392 43.262 24.9062 44.0587 24.4402C44.8554 23.9742 45.4792 23.3278 45.9302 22.5011C46.3812 21.6593 46.6066 20.7122 46.6066 19.66C46.6066 18.6078 46.3812 17.6683 45.9302 16.8415C45.4792 15.9997 44.8554 15.3533 44.0587 14.9024C43.262 14.4364 42.3751 14.2034 41.398 14.2034C40.4209 14.2034 39.5341 14.4364 38.7374 14.9024C37.9407 15.3533 37.3168 15.9997 36.8659 16.8415C36.4149 17.6683 36.1894 18.6078 36.1894 19.66C36.1894 20.7122 36.4149 21.6593 36.8659 22.5011C37.3168 23.3278 37.9407 23.9742 38.7374 24.4402C39.5341 24.9062 40.4209 25.1392 41.398 25.1392Z"/>
<path d="M11.3931 33.8331H1.02094C1.02094 34.8853 1.25394 35.8323 1.71993 36.6741C2.18593 37.5009 2.82479 38.1473 3.63652 38.6133C4.46328 39.0793 5.38775 39.3123 6.40993 39.3123C7.20663 39.3123 7.95072 39.1619 8.64219 38.8613C9.3487 38.5456 9.92743 38.0947 10.3784 37.5084L10.6941 37.8241C10.183 38.4404 9.55163 38.9139 8.80003 39.2446C8.04843 39.5753 7.25173 39.7407 6.40993 39.7407C5.29756 39.7407 4.29793 39.4926 3.41104 38.9966C2.53918 38.4855 1.84771 37.779 1.33662 36.8771C0.840558 35.9751 0.592529 34.9605 0.592529 33.8331C0.592529 32.7057 0.825526 31.6985 1.29152 30.8116C1.75751 29.9097 2.39638 29.2107 3.20811 28.7147C4.03487 28.2036 4.95934 27.948 5.98152 27.948C6.98867 27.948 7.90562 28.1961 8.73239 28.6921C9.55915 29.1882 10.2055 29.8721 10.6715 30.744C11.1525 31.6159 11.3931 32.608 11.3931 33.7203V33.8331ZM5.98152 28.3764C5.0796 28.3764 4.26035 28.5944 3.52378 29.0303C2.78721 29.4663 2.19344 30.0676 1.74248 30.8342C1.30655 31.6008 1.06604 32.4576 1.02094 33.4047H10.9646C10.9195 32.4576 10.6715 31.6008 10.2206 30.8342C9.7696 30.0676 9.17583 29.4663 8.43926 29.0303C7.70269 28.5944 6.88344 28.3764 5.98152 28.3764Z"/>
<path d="M14.2998 31.0371C14.6305 30.045 15.1867 29.2859 15.9684 28.7598C16.75 28.2186 17.7196 27.948 18.8771 27.948V28.399H18.7418C17.3438 28.399 16.254 28.85 15.4723 29.7519C14.6907 30.6388 14.2998 31.8564 14.2998 33.4047V57.0673H13.8489V28.0157H14.2998V31.0371Z"/>
<path d="M26.2514 27.948C27.7095 27.948 28.8519 28.3689 29.6787 29.2107C30.5054 30.0375 30.9188 31.2325 30.9188 32.7959V39.673H30.4679V32.7959C30.4679 31.3678 30.0996 30.278 29.363 29.5264C28.6415 28.7598 27.6118 28.3764 26.2739 28.3764C24.7557 28.3764 23.5531 28.8349 22.6662 29.7519C21.7944 30.6538 21.3584 31.8489 21.3584 33.337V39.673H20.9075V28.0157H21.3584V31.1273C21.7192 30.1352 22.3205 29.361 23.1623 28.8049C24.0041 28.2336 25.0338 27.948 26.2514 27.948Z"/>
</mask>
<path d="M15.8221 13.775C17.2352 13.775 18.34 14.1959 19.1367 15.0376C19.9484 15.8644 20.3543 17.0595 20.3543 18.6228V25.5H19.9033V18.6228C19.9033 17.1947 19.5501 16.1049 18.8436 15.3533C18.1371 14.5867 17.1375 14.2034 15.8447 14.2034C14.3716 14.2034 13.8508 14.6618 12.994 15.5788C12.1371 16.4807 11.7087 17.6758 11.7087 19.1639V25.5H11.2578V18.6228C11.2578 17.1947 10.9045 16.1049 10.198 15.3533C9.4915 14.5867 8.49187 14.2034 7.19912 14.2034C5.72598 14.2034 4.56099 14.6618 3.70416 15.5788C2.84734 16.4807 3.06315 17.6758 3.06315 19.1639V25.5H2.61219V13.8426H3.06315V16.9317C3.40889 15.9396 3.35091 15.1654 4.17767 14.6092C5.00444 14.0531 6.00407 13.775 7.17657 13.775C8.3641 13.775 9.34118 14.0756 10.1078 14.6769C10.8745 15.2631 11.3705 16.12 11.596 17.2474C11.8966 16.1801 12.4679 15.3383 13.3096 14.722C14.1665 14.0906 14.5745 13.775 15.8221 13.775Z" fill="black"/>
<path d="M28.3444 25.5676C27.2772 25.5676 26.3076 25.3196 25.4357 24.8235C24.5789 24.3124 23.9025 23.6059 23.4064 22.704C22.9254 21.8021 22.6849 20.7874 22.6849 19.66C22.6849 18.5326 22.9254 17.5255 23.4064 16.6386C23.9025 15.7366 24.5789 15.0376 25.4357 14.5416C26.3076 14.0305 27.2772 13.775 28.3444 13.775C29.4117 13.775 30.3738 14.0305 31.2306 14.5416C32.1024 15.0376 32.7789 15.7366 33.2599 16.6386C33.756 17.5255 34.004 18.5326 34.004 19.66C34.004 20.7874 33.756 21.8021 33.2599 22.704C32.7789 23.6059 32.1024 24.3124 31.2306 24.8235C30.3738 25.3196 29.4117 25.5676 28.3444 25.5676ZM28.3444 25.1392C29.3215 25.1392 30.2084 24.9062 31.0051 24.4402C31.8018 23.9742 32.4256 23.3278 32.8766 22.5011C33.3276 21.6593 33.553 20.7122 33.553 19.66C33.553 18.6078 33.3276 17.6683 32.8766 16.8415C32.4256 15.9997 31.8018 15.3533 31.0051 14.9024C30.2084 14.4364 29.3215 14.2034 28.3444 14.2034C27.3673 14.2034 26.4805 14.4364 25.6838 14.9024C24.8871 15.3533 24.2632 15.9997 23.8123 16.8415C23.3613 17.6683 23.1358 18.6078 23.1358 19.66C23.1358 20.7122 23.3613 21.6593 23.8123 22.5011C24.2632 23.3278 24.8871 23.9742 25.6838 24.4402C26.4805 24.9062 27.3673 25.1392 28.3444 25.1392Z" fill="black"/>
<path d="M47.0576 1.03851V25.5H46.6066V21.9374C46.2158 23.0497 45.5544 23.9366 44.6224 24.598C43.6904 25.2444 42.6156 25.5676 41.398 25.5676C40.3458 25.5676 39.3837 25.3196 38.5119 24.8235C37.6551 24.3124 36.9786 23.6059 36.4825 22.704C35.9865 21.8021 35.7385 20.7874 35.7385 19.66C35.7385 18.5326 35.9865 17.5255 36.4825 16.6386C36.9786 15.7366 37.6551 15.0376 38.5119 14.5416C39.3837 14.0305 40.3458 13.775 41.398 13.775C42.6006 13.775 43.6679 14.1057 44.5999 14.7671C45.5469 15.4135 46.2158 16.2853 46.6066 17.3827V1.03851H47.0576ZM41.398 25.1392C42.3751 25.1392 43.262 24.9062 44.0587 24.4402C44.8554 23.9742 45.4792 23.3278 45.9302 22.5011C46.3812 21.6593 46.6066 20.7122 46.6066 19.66C46.6066 18.6078 46.3812 17.6683 45.9302 16.8415C45.4792 15.9997 44.8554 15.3533 44.0587 14.9024C43.262 14.4364 42.3751 14.2034 41.398 14.2034C40.4209 14.2034 39.5341 14.4364 38.7374 14.9024C37.9407 15.3533 37.3168 15.9997 36.8659 16.8415C36.4149 17.6683 36.1894 18.6078 36.1894 19.66C36.1894 20.7122 36.4149 21.6593 36.8659 22.5011C37.3168 23.3278 37.9407 23.9742 38.7374 24.4402C39.5341 24.9062 40.4209 25.1392 41.398 25.1392Z" fill="black"/>
<path d="M11.3931 33.8331H1.02094C1.02094 34.8853 1.25394 35.8323 1.71993 36.6741C2.18593 37.5009 2.82479 38.1473 3.63652 38.6133C4.46328 39.0793 5.38775 39.3123 6.40993 39.3123C7.20663 39.3123 7.95072 39.1619 8.64219 38.8613C9.3487 38.5456 9.92743 38.0947 10.3784 37.5084L10.6941 37.8241C10.183 38.4404 9.55163 38.9139 8.80003 39.2446C8.04843 39.5753 7.25173 39.7407 6.40993 39.7407C5.29756 39.7407 4.29793 39.4926 3.41104 38.9966C2.53918 38.4855 1.84771 37.779 1.33662 36.8771C0.840558 35.9751 0.592529 34.9605 0.592529 33.8331C0.592529 32.7057 0.825526 31.6985 1.29152 30.8116C1.75751 29.9097 2.39638 29.2107 3.20811 28.7147C4.03487 28.2036 4.95934 27.948 5.98152 27.948C6.98867 27.948 7.90562 28.1961 8.73239 28.6921C9.55915 29.1882 10.2055 29.8721 10.6715 30.744C11.1525 31.6159 11.3931 32.608 11.3931 33.7203V33.8331ZM5.98152 28.3764C5.0796 28.3764 4.26035 28.5944 3.52378 29.0303C2.78721 29.4663 2.19344 30.0676 1.74248 30.8342C1.30655 31.6008 1.06604 32.4576 1.02094 33.4047H10.9646C10.9195 32.4576 10.6715 31.6008 10.2206 30.8342C9.7696 30.0676 9.17583 29.4663 8.43926 29.0303C7.70269 28.5944 6.88344 28.3764 5.98152 28.3764Z" fill="black"/>
<path d="M14.2998 31.0371C14.6305 30.045 15.1867 29.2859 15.9684 28.7598C16.75 28.2186 17.7196 27.948 18.8771 27.948V28.399H18.7418C17.3438 28.399 16.254 28.85 15.4723 29.7519C14.6907 30.6388 14.2998 31.8564 14.2998 33.4047V57.0673H13.8489V28.0157H14.2998V31.0371Z" fill="black"/>
<path d="M26.2514 27.948C27.7095 27.948 28.8519 28.3689 29.6787 29.2107C30.5054 30.0375 30.9188 31.2325 30.9188 32.7959V39.673H30.4679V32.7959C30.4679 31.3678 30.0996 30.278 29.363 29.5264C28.6415 28.7598 27.6118 28.3764 26.2739 28.3764C24.7557 28.3764 23.5531 28.8349 22.6662 29.7519C21.7944 30.6538 21.3584 31.8489 21.3584 33.337V39.673H20.9075V28.0157H21.3584V31.1273C21.7192 30.1352 22.3205 29.361 23.1623 28.8049C24.0041 28.2336 25.0338 27.948 26.2514 27.948Z" fill="black"/>
<path d="M15.8221 13.775C17.2352 13.775 18.34 14.1959 19.1367 15.0376C19.9484 15.8644 20.3543 17.0595 20.3543 18.6228V25.5H19.9033V18.6228C19.9033 17.1947 19.5501 16.1049 18.8436 15.3533C18.1371 14.5867 17.1375 14.2034 15.8447 14.2034C14.3716 14.2034 13.8508 14.6618 12.994 15.5788C12.1371 16.4807 11.7087 17.6758 11.7087 19.1639V25.5H11.2578V18.6228C11.2578 17.1947 10.9045 16.1049 10.198 15.3533C9.4915 14.5867 8.49187 14.2034 7.19912 14.2034C5.72598 14.2034 4.56099 14.6618 3.70416 15.5788C2.84734 16.4807 3.06315 17.6758 3.06315 19.1639V25.5H2.61219V13.8426H3.06315V16.9317C3.40889 15.9396 3.35091 15.1654 4.17767 14.6092C5.00444 14.0531 6.00407 13.775 7.17657 13.775C8.3641 13.775 9.34118 14.0756 10.1078 14.6769C10.8745 15.2631 11.3705 16.12 11.596 17.2474C11.8966 16.1801 12.4679 15.3383 13.3096 14.722C14.1665 14.0906 14.5745 13.775 15.8221 13.775Z" stroke="black" stroke-width="0.193269" mask="url(#path-1-outside-1_1112_338)"/>
<path d="M28.3444 25.5676C27.2772 25.5676 26.3076 25.3196 25.4357 24.8235C24.5789 24.3124 23.9025 23.6059 23.4064 22.704C22.9254 21.8021 22.6849 20.7874 22.6849 19.66C22.6849 18.5326 22.9254 17.5255 23.4064 16.6386C23.9025 15.7366 24.5789 15.0376 25.4357 14.5416C26.3076 14.0305 27.2772 13.775 28.3444 13.775C29.4117 13.775 30.3738 14.0305 31.2306 14.5416C32.1024 15.0376 32.7789 15.7366 33.2599 16.6386C33.756 17.5255 34.004 18.5326 34.004 19.66C34.004 20.7874 33.756 21.8021 33.2599 22.704C32.7789 23.6059 32.1024 24.3124 31.2306 24.8235C30.3738 25.3196 29.4117 25.5676 28.3444 25.5676ZM28.3444 25.1392C29.3215 25.1392 30.2084 24.9062 31.0051 24.4402C31.8018 23.9742 32.4256 23.3278 32.8766 22.5011C33.3276 21.6593 33.553 20.7122 33.553 19.66C33.553 18.6078 33.3276 17.6683 32.8766 16.8415C32.4256 15.9997 31.8018 15.3533 31.0051 14.9024C30.2084 14.4364 29.3215 14.2034 28.3444 14.2034C27.3673 14.2034 26.4805 14.4364 25.6838 14.9024C24.8871 15.3533 24.2632 15.9997 23.8123 16.8415C23.3613 17.6683 23.1358 18.6078 23.1358 19.66C23.1358 20.7122 23.3613 21.6593 23.8123 22.5011C24.2632 23.3278 24.8871 23.9742 25.6838 24.4402C26.4805 24.9062 27.3673 25.1392 28.3444 25.1392Z" stroke="black" stroke-width="0.193269" mask="url(#path-1-outside-1_1112_338)"/>
<path d="M47.0576 1.03851V25.5H46.6066V21.9374C46.2158 23.0497 45.5544 23.9366 44.6224 24.598C43.6904 25.2444 42.6156 25.5676 41.398 25.5676C40.3458 25.5676 39.3837 25.3196 38.5119 24.8235C37.6551 24.3124 36.9786 23.6059 36.4825 22.704C35.9865 21.8021 35.7385 20.7874 35.7385 19.66C35.7385 18.5326 35.9865 17.5255 36.4825 16.6386C36.9786 15.7366 37.6551 15.0376 38.5119 14.5416C39.3837 14.0305 40.3458 13.775 41.398 13.775C42.6006 13.775 43.6679 14.1057 44.5999 14.7671C45.5469 15.4135 46.2158 16.2853 46.6066 17.3827V1.03851H47.0576ZM41.398 25.1392C42.3751 25.1392 43.262 24.9062 44.0587 24.4402C44.8554 23.9742 45.4792 23.3278 45.9302 22.5011C46.3812 21.6593 46.6066 20.7122 46.6066 19.66C46.6066 18.6078 46.3812 17.6683 45.9302 16.8415C45.4792 15.9997 44.8554 15.3533 44.0587 14.9024C43.262 14.4364 42.3751 14.2034 41.398 14.2034C40.4209 14.2034 39.5341 14.4364 38.7374 14.9024C37.9407 15.3533 37.3168 15.9997 36.8659 16.8415C36.4149 17.6683 36.1894 18.6078 36.1894 19.66C36.1894 20.7122 36.4149 21.6593 36.8659 22.5011C37.3168 23.3278 37.9407 23.9742 38.7374 24.4402C39.5341 24.9062 40.4209 25.1392 41.398 25.1392Z" stroke="black" stroke-width="0.193269" mask="url(#path-1-outside-1_1112_338)"/>
<path d="M11.3931 33.8331H1.02094C1.02094 34.8853 1.25394 35.8323 1.71993 36.6741C2.18593 37.5009 2.82479 38.1473 3.63652 38.6133C4.46328 39.0793 5.38775 39.3123 6.40993 39.3123C7.20663 39.3123 7.95072 39.1619 8.64219 38.8613C9.3487 38.5456 9.92743 38.0947 10.3784 37.5084L10.6941 37.8241C10.183 38.4404 9.55163 38.9139 8.80003 39.2446C8.04843 39.5753 7.25173 39.7407 6.40993 39.7407C5.29756 39.7407 4.29793 39.4926 3.41104 38.9966C2.53918 38.4855 1.84771 37.779 1.33662 36.8771C0.840558 35.9751 0.592529 34.9605 0.592529 33.8331C0.592529 32.7057 0.825526 31.6985 1.29152 30.8116C1.75751 29.9097 2.39638 29.2107 3.20811 28.7147C4.03487 28.2036 4.95934 27.948 5.98152 27.948C6.98867 27.948 7.90562 28.1961 8.73239 28.6921C9.55915 29.1882 10.2055 29.8721 10.6715 30.744C11.1525 31.6159 11.3931 32.608 11.3931 33.7203V33.8331ZM5.98152 28.3764C5.0796 28.3764 4.26035 28.5944 3.52378 29.0303C2.78721 29.4663 2.19344 30.0676 1.74248 30.8342C1.30655 31.6008 1.06604 32.4576 1.02094 33.4047H10.9646C10.9195 32.4576 10.6715 31.6008 10.2206 30.8342C9.7696 30.0676 9.17583 29.4663 8.43926 29.0303C7.70269 28.5944 6.88344 28.3764 5.98152 28.3764Z" stroke="black" stroke-width="0.193269" mask="url(#path-1-outside-1_1112_338)"/>
<path d="M14.2998 31.0371C14.6305 30.045 15.1867 29.2859 15.9684 28.7598C16.75 28.2186 17.7196 27.948 18.8771 27.948V28.399H18.7418C17.3438 28.399 16.254 28.85 15.4723 29.7519C14.6907 30.6388 14.2998 31.8564 14.2998 33.4047V57.0673H13.8489V28.0157H14.2998V31.0371Z" stroke="black" stroke-width="0.193269" mask="url(#path-1-outside-1_1112_338)"/>
<path d="M26.2514 27.948C27.7095 27.948 28.8519 28.3689 29.6787 29.2107C30.5054 30.0375 30.9188 31.2325 30.9188 32.7959V39.673H30.4679V32.7959C30.4679 31.3678 30.0996 30.278 29.363 29.5264C28.6415 28.7598 27.6118 28.3764 26.2739 28.3764C24.7557 28.3764 23.5531 28.8349 22.6662 29.7519C21.7944 30.6538 21.3584 31.8489 21.3584 33.337V39.673H20.9075V28.0157H21.3584V31.1273C21.7192 30.1352 22.3205 29.361 23.1623 28.8049C24.0041 28.2336 25.0338 27.948 26.2514 27.948Z" stroke="black" stroke-width="0.193269" mask="url(#path-1-outside-1_1112_338)"/>
</svg>
